<svg t="1737204879394" class="icon" viewBox="0 0 1024 1024" version="1.1" xmlns="http://www.w3.org/2000/svg" p-id="1030" width="16" height="16"><path d="M224 270.634667V391.253333c0 38.656 33.578667 72.448 72.021333 72.448 38.4 0 71.978667-33.792 71.978667-72.448v-24.106666h72.021333v24.106666c0 38.656 33.578667 72.448 71.978667 72.448s72.021333-33.792 72.021333-72.448v-24.106666h71.978667v24.106666c0 38.656 33.621333 72.448 72.021333 72.448 38.4 0 71.978667-33.792 71.978667-72.448V270.634667H224z m0-96.554667H896v217.216c0 91.733333-76.8 168.96-168.021333 168.96-43.178667 0-76.8-14.464-105.6-38.613333-33.578667 24.149333-67.2 38.613333-110.378667 38.613333-43.178667 0-76.8-14.464-105.6-38.613333-33.578667 24.149333-67.2 38.613333-110.421333 38.613333h-23.978667v193.109333H512v96.554667H176V512h4.778667C147.2 483.029333 128 439.594667 128 391.296V174.08h96z" fill="#101010" p-id="1031"></path><path d="M809.130667 597.333333l-51.669334 51.925334-46.976-47.189334-65.792 66.048 46.976 47.189334L640 767.232l65.792 66.048 51.626667-51.882667 51.712 51.882667 65.792-66.048-51.669334-51.925333 51.626667-47.189334L809.216 597.333333z" fill="#101010" p-id="1032"></path></svg>